ffmpeg started on 2026-03-29 at 16:50:54
Report written to "D:\Convert\FFMetrics\reports\ssim_report-6.txt"
Log level: 32
Command line:
ffmpeg -hide_banner -nostdin -r 30000/1001 -i "F:\\\xc0\xed\xe8\xec\xe5\\LightFamily\\\xd1\xef\xe8\xf0\xe0\xeb\xfc\\[LightFamily][DUB] \xd1\xef\xe8\xf0\xe0\xeb\xfc 02 \xf1\xe5\xf0\xe8\xff_HEVC.mkv" -r 30000/1001 -i "F:\\\xc0\xed\xe8\xec\xe5\\LightFamily\\\xd1\xef\xe8\xf0\xe0\xeb\xfc\\[LightFamily][DUB] \xd1\xef\xe8\xf0\xe0\xeb\xfc 02 \xf1\xe5\xf0\xe8\xff.mp4" -lavfi "[0:v]settb=AVTB,setpts=PTS-STARTPTS,format=pix_fmts=yuv420p10le,fps=30000/1001,scale=1920:1080:flags=lanczos:param0=3:out_range=limited:out_color_matrix=bt709:out_chroma_loc=left,setsar=1/1,setdar=(1920/1080)*(1/1),colorspace=format=yuv420p10:range=tv:primaries=bt709:trc=bt709:space=bt709:fast=0[main];[1:v]settb=AVTB,setpts=PTS-STARTPTS,format=pix_fmts=yuv420p,fps=30000/1001,scale=1920:1080:flags=lanczos:param0=3:out_range=limited:out_color_matrix=bt709:out_chroma_loc=left,setsar=1/1,setdar=(1920/1080)*(1/1),colorspace=format=yuv420p:range=tv:primaries=bt709:trc=bt709:space=bt709:fast=0[ref];[main][ref]ssim=eof_action=endall:stats_file='D\\:/Convert/FFMetrics/logs/ssim_logfile-6.txt'" -f null -
Input #0, matroska,webm, from 'F:\Аниме\LightFamily\Спираль\[LightFamily][DUB] Спираль 02 серия_HEVC.mkv':
  Metadata:
    COMPATIBLE_BRANDS: mp42mp41
    MAJOR_BRAND     : mp42
    MINOR_VERSION   : 0
    ENCODER         : Lavf61.7.100
  Duration: 00:27:53.90, start: -0.021000, bitrate: 2075 kb/s
  Stream #0:0(eng): Video: hevc (Main 10), yuv420p10le(tv, bt709, progressive), 1920x1080 [SAR 1:1 DAR 16:9], 29.97 fps, 29.97 tbr, 1k tbn (default)
      Metadata:
        HANDLER_NAME    : Mainconcept Video Media Handler
        VENDOR_ID       : [0][0][0][0]
        ENCODER         : Lavc61.19.100 libx265
        BPS             : 1876462
        DURATION        : 00:27:53.872366666
        NUMBER_OF_FRAMES: 50166
        NUMBER_OF_BYTES : 392619806
        _STATISTICS_WRITING_APP: mkvpropedit v94.0 ('Initiate') 64-bit
        _STATISTICS_WRITING_DATE_UTC: 2026-03-28 16:40:51
        _STATISTICS_TAGS: BPS DURATION NUMBER_OF_FRAMES NUMBER_OF_BYTES
  Stream #0:1(eng): Audio: aac (LC), 48000 Hz, stereo, fltp (default)
      Metadata:
        HANDLER_NAME    : #Mainconcept MP4 Sound Media Handler
        VENDOR_ID       : [0][0][0][0]
        ENCODER         : Lavc61.19.100 aac
        BPS             : 194926
        DURATION        : 00:27:53.877000000
        NUMBER_OF_FRAMES: 78464
        NUMBER_OF_BYTES : 40785432
        _STATISTICS_WRITING_APP: mkvpropedit v94.0 ('Initiate') 64-bit
        _STATISTICS_WRITING_DATE_UTC: 2026-03-28 16:40:51
        _STATISTICS_TAGS: BPS DURATION NUMBER_OF_FRAMES NUMBER_OF_BYTES
Input #1, mov,mp4,m4a,3gp,3g2,mj2, from 'F:\Аниме\LightFamily\Спираль\[LightFamily][DUB] Спираль 02 серия.mp4':
  Metadata:
    major_brand     : mp42
    minor_version   : 0
    compatible_brands: mp42mp41
    creation_time   : 2025-04-12T14:48:20.000000Z
  Duration: 00:27:53.87, start: 0.000000, bitrate: 8385 kb/s
  Stream #1:0[0x1](eng): Video: h264 (Main) (avc1 / 0x31637661), yuv420p(tv, bt709, progressive), 1920x1080, 8000 kb/s, 29.97 fps, 29.97 tbr, 30k tbn (default)
      Metadata:
        creation_time   : 2025-04-12T14:48:20.000000Z
        handler_name    : Mainconcept Video Media Handler
        vendor_id       : [0][0][0][0]
        encoder         : AVC Coding
  Stream #1:1[0x2](eng): Audio: aac (LC) (mp4a / 0x6134706D), 48000 Hz, stereo, fltp, 381 kb/s (default)
      Metadata:
        creation_time   : 2025-04-12T14:48:20.000000Z
        handler_name    : #Mainconcept MP4 Sound Media Handler
        vendor_id       : [0][0][0][0]
Stream mapping:
  Stream #0:0 (hevc) -> settb:default
  Stream #1:0 (h264) -> settb:default
  ssim:default -> Stream #0:0 (wrapped_avframe)
  Stream #0:1 -> #0:1 (aac (native) -> pcm_s16le (native))
Output #0, null, to 'pipe:':
  Metadata:
    COMPATIBLE_BRANDS: mp42mp41
    MAJOR_BRAND     : mp42
    MINOR_VERSION   : 0
    encoder         : Lavf61.7.100
  Stream #0:0: Video: wrapped_avframe, yuv420p10le(tv, bt709, progressive), 1920x1080 [SAR 1:1 DAR 16:9], q=2-31, 200 kb/s, 29.97 fps, 29.97 tbn
      Metadata:
        encoder         : Lavc61.19.100 wrapped_avframe
  Stream #0:1(eng): Audio: pcm_s16le, 48000 Hz, stereo, s16, 1536 kb/s (default)
      Metadata:
        HANDLER_NAME    : #Mainconcept MP4 Sound Media Handler
        VENDOR_ID       : [0][0][0][0]
        _STATISTICS_TAGS: BPS DURATION NUMBER_OF_FRAMES NUMBER_OF_BYTES
        BPS             : 194926
        DURATION        : 00:27:53.877000000
        NUMBER_OF_FRAMES: 78464
        NUMBER_OF_BYTES : 40785432
        _STATISTICS_WRITING_APP: mkvpropedit v94.0 ('Initiate') 64-bit
        _STATISTICS_WRITING_DATE_UTC: 2026-03-28 16:40:51
        encoder         : Lavc61.19.100 pcm_s16le
frame=   85 fps=0.0 q=-0.0 size=N/A time=00:00:02.83 bitrate=N/A speed=5.46x    frame=  230 fps=223 q=-0.0 size=N/A time=00:00:07.67 bitrate=N/A speed=7.44x    frame=  399 fps=259 q=-0.0 size=N/A time=00:00:13.31 bitrate=N/A speed=8.63x    frame=  587 fps=286 q=-0.0 size=N/A time=00:00:19.58 bitrate=N/A speed=9.53x    frame=  782 fps=303 q=-0.0 size=N/A time=00:00:26.09 bitrate=N/A speed=10.1x    frame=  976 fps=316 q=-0.0 size=N/A time=00:00:32.56 bitrate=N/A speed=10.5x    frame= 1169 fps=324 q=-0.0 size=N/A time=00:00:39.00 bitrate=N/A speed=10.8x    frame= 1362 fps=331 q=-0.0 size=N/A time=00:00:45.44 bitrate=N/A speed=  11x    frame= 1559 fps=336 q=-0.0 size=N/A time=00:00:52.01 bitrate=N/A speed=11.2x    frame= 1735 fps=337 q=-0.0 size=N/A time=00:00:57.89 bitrate=N/A speed=11.2x    frame= 1924 fps=340 q=-0.0 size=N/A time=00:01:04.19 bitrate=N/A speed=11.3x    frame= 2111 fps=342 q=-0.0 size=N/A time=00:01:10.43 bitrate=N/A speed=11.4x    frame= 2317 fps=345 q=-0.0 size=N/A time=00:01:17.31 bitrate=N/A speed=11.5x    frame= 2506 fps=347 q=-0.0 size=N/A time=00:01:23.61 bitrate=N/A speed=11.6x    frame= 2651 fps=343 q=-0.0 size=N/A time=00:01:28.45 bitrate=N/A speed=11.4x    frame= 2800 fps=340 q=-0.0 size=N/A time=00:01:33.42 bitrate=N/A speed=11.3x    frame= 2970 fps=339 q=-0.0 size=N/A time=00:01:39.09 bitrate=N/A speed=11.3x    frame= 3159 fps=340 q=-0.0 size=N/A time=00:01:45.40 bitrate=N/A speed=11.4x    frame= 3344 fps=342 q=-0.0 size=N/A time=00:01:51.57 bitrate=N/A speed=11.4x    frame= 3528 fps=342 q=-0.0 size=N/A time=00:01:57.71 bitrate=N/A speed=11.4x    frame= 3696 fps=341 q=-0.0 size=N/A time=00:02:03.32 bitrate=N/A speed=11.4x    frame= 3879 fps=342 q=-0.0 size=N/A time=00:02:09.42 bitrate=N/A speed=11.4x    frame= 4067 fps=343 q=-0.0 size=N/A time=00:02:15.70 bitrate=N/A speed=11.5x    frame= 4241 fps=343 q=-0.0 size=N/A time=00:02:21.50 bitrate=N/A speed=11.4x    frame= 4428 fps=343 q=-0.0 size=N/A time=00:02:27.74 bitrate=N/A speed=11.5x    frame= 4613 fps=344 q=-0.0 size=N/A time=00:02:33.92 bitrate=N/A speed=11.5x    frame= 4787 fps=344 q=-0.0 size=N/A time=00:02:39.72 bitrate=N/A speed=11.5x    frame= 4954 fps=343 q=-0.0 size=N/A time=00:02:45.29 bitrate=N/A speed=11.5x    frame= 5120 fps=342 q=-0.0 size=N/A time=00:02:50.83 bitrate=N/A speed=11.4x    frame= 5298 fps=342 q=-0.0 size=N/A time=00:02:56.77 bitrate=N/A speed=11.4x    frame= 5443 fps=340 q=-0.0 size=N/A time=00:03:01.61 bitrate=N/A speed=11.4x    frame= 5611 fps=340 q=-0.0 size=N/A time=00:03:07.22 bitrate=N/A speed=11.3x    frame= 5784 fps=340 q=-0.0 size=N/A time=00:03:12.99 bitrate=N/A speed=11.3x    frame= 5951 fps=339 q=-0.0 size=N/A time=00:03:18.56 bitrate=N/A speed=11.3x    frame= 6139 fps=340 q=-0.0 size=N/A time=00:03:24.83 bitrate=N/A speed=11.3x    frame= 6300 fps=339 q=-0.0 size=N/A time=00:03:30.21 bitrate=N/A speed=11.3x    frame= 6482 fps=339 q=-0.0 size=N/A time=00:03:36.28 bitrate=N/A speed=11.3x    frame= 6652 fps=339 q=-0.0 size=N/A time=00:03:41.95 bitrate=N/A speed=11.3x    frame= 6830 fps=339 q=-0.0 size=N/A time=00:03:47.89 bitrate=N/A speed=11.3x    frame= 7005 fps=340 q=-0.0 size=N/A time=00:03:53.73 bitrate=N/A speed=11.3x    frame= 7194 fps=340 q=-0.0 size=N/A time=00:04:00.03 bitrate=N/A speed=11.3x    frame= 7378 fps=340 q=-0.0 size=N/A time=00:04:06.17 bitrate=N/A speed=11.4x    frame= 7549 fps=340 q=-0.0 size=N/A time=00:04:11.88 bitrate=N/A speed=11.4x    frame= 7725 fps=340 q=-0.0 size=N/A time=00:04:17.75 bitrate=N/A speed=11.4x    frame= 7907 fps=341 q=-0.0 size=N/A time=00:04:23.83 bitrate=N/A speed=11.4x    frame= 8093 fps=341 q=-0.0 size=N/A time=00:04:30.03 bitrate=N/A speed=11.4x    frame= 8270 fps=341 q=-0.0 size=N/A time=00:04:35.94 bitrate=N/A speed=11.4x    frame= 8445 fps=341 q=-0.0 size=N/A time=00:04:41.78 bitrate=N/A speed=11.4x    frame= 8637 fps=342 q=-0.0 size=N/A time=00:04:48.18 bitrate=N/A speed=11.4x    frame= 8823 fps=342 q=-0.0 size=N/A time=00:04:54.39 bitrate=N/A speed=11.4x    frame= 9003 fps=342 q=-0.0 size=N/A time=00:05:00.40 bitrate=N/A speed=11.4x    frame= 9191 fps=343 q=-0.0 size=N/A time=00:05:06.67 bitrate=N/A speed=11.4x    frame= 9382 fps=343 q=-0.0 size=N/A time=00:05:13.04 bitrate=N/A speed=11.4x    frame= 9566 fps=343 q=-0.0 size=N/A time=00:05:19.18 bitrate=N/A speed=11.5x    frame= 9721 fps=343 q=-0.0 size=N/A time=00:05:24.35 bitrate=N/A speed=11.4x    frame= 9885 fps=342 q=-0.0 size=N/A time=00:05:29.82 bitrate=N/A speed=11.4x    frame=10079 fps=343 q=-0.0 size=N/A time=00:05:36.30 bitrate=N/A speed=11.4x    frame=10271 fps=343 q=-0.0 size=N/A time=00:05:42.70 bitrate=N/A speed=11.5x    frame=10458 fps=344 q=-0.0 size=N/A time=00:05:48.94 bitrate=N/A speed=11.5x    frame=10652 fps=344 q=-0.0 size=N/A time=00:05:55.42 bitrate=N/A speed=11.5x    frame=10847 fps=345 q=-0.0 size=N/A time=00:06:01.92 bitrate=N/A speed=11.5x    frame=11039 fps=345 q=-0.0 size=N/A time=00:06:08.33 bitrate=N/A speed=11.5x    frame=11236 fps=346 q=-0.0 size=N/A time=00:06:14.90 bitrate=N/A speed=11.5x    frame=11434 fps=346 q=-0.0 size=N/A time=00:06:21.51 bitrate=N/A speed=11.5x    frame=11626 fps=347 q=-0.0 size=N/A time=00:06:27.92 bitrate=N/A speed=11.6x    frame=11825 fps=347 q=-0.0 size=N/A time=00:06:34.56 bitrate=N/A speed=11.6x    frame=12024 fps=348 q=-0.0 size=N/A time=00:06:41.20 bitrate=N/A speed=11.6x    frame=12222 fps=348 q=-0.0 size=N/A time=00:06:47.80 bitrate=N/A speed=11.6x    frame=12411 fps=349 q=-0.0 size=N/A time=00:06:54.11 bitrate=N/A speed=11.6x    frame=12598 fps=349 q=-0.0 size=N/A time=00:07:00.35 bitrate=N/A speed=11.6x    frame=12760 fps=348 q=-0.0 size=N/A time=00:07:05.75 bitrate=N/A speed=11.6x    frame=12950 fps=349 q=-0.0 size=N/A time=00:07:12.09 bitrate=N/A speed=11.6x    frame=13142 fps=349 q=-0.0 size=N/A time=00:07:18.50 bitrate=N/A speed=11.6x    frame=13320 fps=349 q=-0.0 size=N/A time=00:07:24.44 bitrate=N/A speed=11.6x    frame=13471 fps=348 q=-0.0 size=N/A time=00:07:29.48 bitrate=N/A speed=11.6x    frame=13651 fps=348 q=-0.0 size=N/A time=00:07:35.48 bitrate=N/A speed=11.6x    frame=13839 fps=348 q=-0.0 size=N/A time=00:07:41.76 bitrate=N/A speed=11.6x    frame=14027 fps=349 q=-0.0 size=N/A time=00:07:48.03 bitrate=N/A speed=11.6x    frame=14186 fps=348 q=-0.0 size=N/A time=00:07:53.33 bitrate=N/A speed=11.6x    frame=14365 fps=348 q=-0.0 size=N/A time=00:07:59.31 bitrate=N/A speed=11.6x    frame=14549 fps=348 q=-0.0 size=N/A time=00:08:05.45 bitrate=N/A speed=11.6x    frame=14747 fps=348 q=-0.0 size=N/A time=00:08:12.05 bitrate=N/A speed=11.6x    frame=14924 fps=348 q=-0.0 size=N/A time=00:08:17.96 bitrate=N/A speed=11.6x    frame=15103 fps=348 q=-0.0 size=N/A time=00:08:23.93 bitrate=N/A speed=11.6x    frame=15286 fps=349 q=-0.0 size=N/A time=00:08:30.04 bitrate=N/A speed=11.6x    frame=15475 fps=349 q=-0.0 size=N/A time=00:08:36.34 bitrate=N/A speed=11.6x    frame=15673 fps=349 q=-0.0 size=N/A time=00:08:42.95 bitrate=N/A speed=11.6x    frame=15868 fps=349 q=-0.0 size=N/A time=00:08:49.46 bitrate=N/A speed=11.7x    frame=16035 fps=349 q=-0.0 size=N/A time=00:08:55.03 bitrate=N/A speed=11.7x    frame=16208 fps=349 q=-0.0 size=N/A time=00:09:00.80 bitrate=N/A speed=11.6x    frame=16372 fps=349 q=-0.0 size=N/A time=00:09:06.27 bitrate=N/A speed=11.6x    frame=16529 fps=348 q=-0.0 size=N/A time=00:09:11.51 bitrate=N/A speed=11.6x    frame=16709 fps=348 q=-0.0 size=N/A time=00:09:17.52 bitrate=N/A speed=11.6x    frame=16901 fps=349 q=-0.0 size=N/A time=00:09:23.93 bitrate=N/A speed=11.6x    frame=17105 fps=349 q=-0.0 size=N/A time=00:09:30.73 bitrate=N/A speed=11.6x    frame=17288 fps=349 q=-0.0 size=N/A time=00:09:36.84 bitrate=N/A speed=11.6x    frame=17415 fps=348 q=-0.0 size=N/A time=00:09:41.08 bitrate=N/A speed=11.6x    frame=17581 fps=348 q=-0.0 size=N/A time=00:09:46.61 bitrate=N/A speed=11.6x    frame=17758 fps=348 q=-0.0 size=N/A time=00:09:52.52 bitrate=N/A speed=11.6x    frame=17945 fps=348 q=-0.0 size=N/A time=00:09:58.76 bitrate=N/A speed=11.6x    frame=18139 fps=348 q=-0.0 size=N/A time=00:10:05.23 bitrate=N/A speed=11.6x    frame=18319 fps=348 q=-0.0 size=N/A time=00:10:11.24 bitrate=N/A speed=11.6x    frame=18503 fps=348 q=-0.0 size=N/A time=00:10:17.38 bitrate=N/A speed=11.6x    frame=18676 fps=348 q=-0.0 size=N/A time=00:10:23.15 bitrate=N/A speed=11.6x    frame=18871 fps=348 q=-0.0 size=N/A time=00:10:29.66 bitrate=N/A speed=11.6x    frame=19061 fps=349 q=-0.0 size=N/A time=00:10:36.00 bitrate=N/A speed=11.6x    frame=19263 fps=349 q=-0.0 size=N/A time=00:10:42.74 bitrate=N/A speed=11.6x    frame=19437 fps=349 q=-0.0 size=N/A time=00:10:48.54 bitrate=N/A speed=11.6x    frame=19616 fps=349 q=-0.0 size=N/A time=00:10:54.52 bitrate=N/A speed=11.6x    frame=19796 fps=349 q=-0.0 size=N/A time=00:11:00.52 bitrate=N/A speed=11.6x    frame=19970 fps=349 q=-0.0 size=N/A time=00:11:06.33 bitrate=N/A speed=11.6x    frame=20160 fps=349 q=-0.0 size=N/A time=00:11:12.67 bitrate=N/A speed=11.6x    frame=20349 fps=349 q=-0.0 size=N/A time=00:11:18.97 bitrate=N/A speed=11.6x    frame=20539 fps=349 q=-0.0 size=N/A time=00:11:25.31 bitrate=N/A speed=11.6x    frame=20726 fps=349 q=-0.0 size=N/A time=00:11:31.55 bitrate=N/A speed=11.7x    frame=20907 fps=349 q=-0.0 size=N/A time=00:11:37.59 bitrate=N/A speed=11.7x    frame=21097 fps=349 q=-0.0 size=N/A time=00:11:43.93 bitrate=N/A speed=11.7x    frame=21268 fps=349 q=-0.0 size=N/A time=00:11:49.64 bitrate=N/A speed=11.7x    frame=21458 fps=349 q=-0.0 size=N/A time=00:11:55.98 bitrate=N/A speed=11.7x    frame=21624 fps=349 q=-0.0 size=N/A time=00:12:01.52 bitrate=N/A speed=11.7x    frame=21771 fps=349 q=-0.0 size=N/A time=00:12:06.42 bitrate=N/A speed=11.6x    frame=21927 fps=348 q=-0.0 size=N/A time=00:12:11.63 bitrate=N/A speed=11.6x    frame=22102 fps=348 q=-0.0 size=N/A time=00:12:17.47 bitrate=N/A speed=11.6x    frame=22290 fps=348 q=-0.0 size=N/A time=00:12:23.74 bitrate=N/A speed=11.6x    frame=22462 fps=348 q=-0.0 size=N/A time=00:12:29.48 bitrate=N/A speed=11.6x    frame=22654 fps=348 q=-0.0 size=N/A time=00:12:35.88 bitrate=N/A speed=11.6x    frame=22846 fps=349 q=-0.0 size=N/A time=00:12:42.29 bitrate=N/A speed=11.6x    frame=23041 fps=349 q=-0.0 size=N/A time=00:12:48.80 bitrate=N/A speed=11.6x    frame=23208 fps=349 q=-0.0 size=N/A time=00:12:54.37 bitrate=N/A speed=11.6x    frame=23398 fps=349 q=-0.0 size=N/A time=00:13:00.71 bitrate=N/A speed=11.6x    frame=23589 fps=349 q=-0.0 size=N/A time=00:13:07.08 bitrate=N/A speed=11.6x    frame=23783 fps=349 q=-0.0 size=N/A time=00:13:13.55 bitrate=N/A speed=11.6x    frame=23958 fps=349 q=-0.0 size=N/A time=00:13:19.39 bitrate=N/A speed=11.6x    frame=24135 fps=349 q=-0.0 size=N/A time=00:13:25.30 bitrate=N/A speed=11.6x    frame=24325 fps=349 q=-0.0 size=N/A time=00:13:31.64 bitrate=N/A speed=11.6x    frame=24503 fps=349 q=-0.0 size=N/A time=00:13:37.58 bitrate=N/A speed=11.6x    frame=24695 fps=349 q=-0.0 size=N/A time=00:13:43.98 bitrate=N/A speed=11.7x    frame=24877 fps=349 q=-0.0 size=N/A time=00:13:50.06 bitrate=N/A speed=11.7x    frame=25076 fps=350 q=-0.0 size=N/A time=00:13:56.70 bitrate=N/A speed=11.7x    frame=25265 fps=350 q=-0.0 size=N/A time=00:14:03.00 bitrate=N/A speed=11.7x    frame=25445 fps=350 q=-0.0 size=N/A time=00:14:09.01 bitrate=N/A speed=11.7x    frame=25603 fps=349 q=-0.0 size=N/A time=00:14:14.28 bitrate=N/A speed=11.7x    frame=25752 fps=349 q=-0.0 size=N/A time=00:14:19.25 bitrate=N/A speed=11.6x    frame=25924 fps=349 q=-0.0 size=N/A time=00:14:24.99 bitrate=N/A speed=11.6x    frame=26115 fps=349 q=-0.0 size=N/A time=00:14:31.37 bitrate=N/A speed=11.6x    frame=26306 fps=349 q=-0.0 size=N/A time=00:14:37.74 bitrate=N/A speed=11.7x    frame=26473 fps=349 q=-0.0 size=N/A time=00:14:43.31 bitrate=N/A speed=11.6x    frame=26645 fps=349 q=-0.0 size=N/A time=00:14:49.05 bitrate=N/A speed=11.6x    frame=26834 fps=349 q=-0.0 size=N/A time=00:14:55.36 bitrate=N/A speed=11.6x    frame=27017 fps=349 q=-0.0 size=N/A time=00:15:01.46 bitrate=N/A speed=11.6x    frame=27168 fps=349 q=-0.0 size=N/A time=00:15:06.50 bitrate=N/A speed=11.6x    frame=27350 fps=349 q=-0.0 size=N/A time=00:15:12.57 bitrate=N/A speed=11.6x    frame=27538 fps=349 q=-0.0 size=N/A time=00:15:18.85 bitrate=N/A speed=11.6x    frame=27727 fps=349 q=-0.0 size=N/A time=00:15:25.15 bitrate=N/A speed=11.6x    frame=27915 fps=349 q=-0.0 size=N/A time=00:15:31.43 bitrate=N/A speed=11.6x    frame=28113 fps=349 q=-0.0 size=N/A time=00:15:38.03 bitrate=N/A speed=11.7x    frame=28285 fps=349 q=-0.0 size=N/A time=00:15:43.77 bitrate=N/A speed=11.6x    frame=28460 fps=349 q=-0.0 size=N/A time=00:15:49.61 bitrate=N/A speed=11.6x    frame=28637 fps=349 q=-0.0 size=N/A time=00:15:55.52 bitrate=N/A speed=11.6x    frame=28834 fps=349 q=-0.0 size=N/A time=00:16:02.09 bitrate=N/A speed=11.6x    frame=29020 fps=349 q=-0.0 size=N/A time=00:16:08.30 bitrate=N/A speed=11.7x    frame=29209 fps=349 q=-0.0 size=N/A time=00:16:14.60 bitrate=N/A speed=11.7x    frame=29389 fps=349 q=-0.0 size=N/A time=00:16:20.61 bitrate=N/A speed=11.7x    frame=29585 fps=349 q=-0.0 size=N/A time=00:16:27.15 bitrate=N/A speed=11.7x    frame=29779 fps=350 q=-0.0 size=N/A time=00:16:33.62 bitrate=N/A speed=11.7x    frame=29960 fps=350 q=-0.0 size=N/A time=00:16:39.66 bitrate=N/A speed=11.7x    frame=30144 fps=350 q=-0.0 size=N/A time=00:16:45.80 bitrate=N/A speed=11.7x    frame=30329 fps=350 q=-0.0 size=N/A time=00:16:51.97 bitrate=N/A speed=11.7x    frame=30505 fps=350 q=-0.0 size=N/A time=00:16:57.85 bitrate=N/A speed=11.7x    frame=30679 fps=350 q=-0.0 size=N/A time=00:17:03.65 bitrate=N/A speed=11.7x    frame=30875 fps=350 q=-0.0 size=N/A time=00:17:10.19 bitrate=N/A speed=11.7x    frame=31054 fps=350 q=-0.0 size=N/A time=00:17:16.16 bitrate=N/A speed=11.7x    frame=31239 fps=350 q=-0.0 size=N/A time=00:17:22.34 bitrate=N/A speed=11.7x    frame=31434 fps=350 q=-0.0 size=N/A time=00:17:28.84 bitrate=N/A speed=11.7x    frame=31620 fps=350 q=-0.0 size=N/A time=00:17:35.05 bitrate=N/A speed=11.7x    frame=31815 fps=350 q=-0.0 size=N/A time=00:17:41.56 bitrate=N/A speed=11.7x    frame=32009 fps=350 q=-0.0 size=N/A time=00:17:48.03 bitrate=N/A speed=11.7x    frame=32205 fps=351 q=-0.0 size=N/A time=00:17:54.57 bitrate=N/A speed=11.7x    frame=32391 fps=351 q=-0.0 size=N/A time=00:18:00.77 bitrate=N/A speed=11.7x    frame=32569 fps=351 q=-0.0 size=N/A time=00:18:06.71 bitrate=N/A speed=11.7x    frame=32757 fps=351 q=-0.0 size=N/A time=00:18:12.99 bitrate=N/A speed=11.7x    frame=32948 fps=351 q=-0.0 size=N/A time=00:18:19.36 bitrate=N/A speed=11.7x    frame=33136 fps=351 q=-0.0 size=N/A time=00:18:25.63 bitrate=N/A speed=11.7x    frame=33322 fps=351 q=-0.0 size=N/A time=00:18:31.84 bitrate=N/A speed=11.7x    frame=33519 fps=351 q=-0.0 size=N/A time=00:18:38.41 bitrate=N/A speed=11.7x    frame=33698 fps=351 q=-0.0 size=N/A time=00:18:44.38 bitrate=N/A speed=11.7x    frame=33872 fps=351 q=-0.0 size=N/A time=00:18:50.19 bitrate=N/A speed=11.7x    frame=34057 fps=351 q=-0.0 size=N/A time=00:18:56.36 bitrate=N/A speed=11.7x    frame=34237 fps=351 q=-0.0 size=N/A time=00:19:02.37 bitrate=N/A speed=11.7x    frame=34426 fps=351 q=-0.0 size=N/A time=00:19:08.68 bitrate=N/A speed=11.7x    frame=34614 fps=351 q=-0.0 size=N/A time=00:19:14.95 bitrate=N/A speed=11.7x    frame=34787 fps=351 q=-0.0 size=N/A time=00:19:20.72 bitrate=N/A speed=11.7x    frame=34962 fps=351 q=-0.0 size=N/A time=00:19:26.56 bitrate=N/A speed=11.7x    frame=35150 fps=351 q=-0.0 size=N/A time=00:19:32.83 bitrate=N/A speed=11.7x    frame=35332 fps=351 q=-0.0 size=N/A time=00:19:38.91 bitrate=N/A speed=11.7x    frame=35517 fps=351 q=-0.0 size=N/A time=00:19:45.08 bitrate=N/A speed=11.7x    frame=35704 fps=351 q=-0.0 size=N/A time=00:19:51.32 bitrate=N/A speed=11.7x    frame=35892 fps=351 q=-0.0 size=N/A time=00:19:57.59 bitrate=N/A speed=11.7x    frame=36087 fps=351 q=-0.0 size=N/A time=00:20:04.10 bitrate=N/A speed=11.7x    frame=36260 fps=351 q=-0.0 size=N/A time=00:20:09.87 bitrate=N/A speed=11.7x    frame=36452 fps=351 q=-0.0 size=N/A time=00:20:16.28 bitrate=N/A speed=11.7x    frame=36641 fps=351 q=-0.0 size=N/A time=00:20:22.58 bitrate=N/A speed=11.7x    frame=36843 fps=352 q=-0.0 size=N/A time=00:20:29.32 bitrate=N/A speed=11.7x    frame=37037 fps=352 q=-0.0 size=N/A time=00:20:35.80 bitrate=N/A speed=11.7x    frame=37234 fps=352 q=-0.0 size=N/A time=00:20:42.37 bitrate=N/A speed=11.7x    frame=37435 fps=352 q=-0.0 size=N/A time=00:20:49.08 bitrate=N/A speed=11.7x    frame=37640 fps=352 q=-0.0 size=N/A time=00:20:55.92 bitrate=N/A speed=11.8x    frame=37836 fps=352 q=-0.0 size=N/A time=00:21:02.46 bitrate=N/A speed=11.8x    frame=38026 fps=353 q=-0.0 size=N/A time=00:21:08.80 bitrate=N/A speed=11.8x    frame=38219 fps=353 q=-0.0 size=N/A time=00:21:15.24 bitrate=N/A speed=11.8x    frame=38410 fps=353 q=-0.0 size=N/A time=00:21:21.61 bitrate=N/A speed=11.8x    frame=38600 fps=353 q=-0.0 size=N/A time=00:21:27.95 bitrate=N/A speed=11.8x    frame=38791 fps=353 q=-0.0 size=N/A time=00:21:34.32 bitrate=N/A speed=11.8x    frame=38990 fps=353 q=-0.0 size=N/A time=00:21:40.96 bitrate=N/A speed=11.8x    frame=39192 fps=353 q=-0.0 size=N/A time=00:21:47.70 bitrate=N/A speed=11.8x    frame=39385 fps=353 q=-0.0 size=N/A time=00:21:54.14 bitrate=N/A speed=11.8x    frame=39577 fps=353 q=-0.0 size=N/A time=00:22:00.55 bitrate=N/A speed=11.8x    frame=39771 fps=354 q=-0.0 size=N/A time=00:22:07.02 bitrate=N/A speed=11.8x    frame=39965 fps=354 q=-0.0 size=N/A time=00:22:13.49 bitrate=N/A speed=11.8x    frame=40139 fps=354 q=-0.0 size=N/A time=00:22:19.30 bitrate=N/A speed=11.8x    frame=40330 fps=354 q=-0.0 size=N/A time=00:22:25.67 bitrate=N/A speed=11.8x    frame=40524 fps=354 q=-0.0 size=N/A time=00:22:32.15 bitrate=N/A speed=11.8x    frame=40718 fps=354 q=-0.0 size=N/A time=00:22:38.62 bitrate=N/A speed=11.8x    frame=40912 fps=354 q=-0.0 size=N/A time=00:22:45.09 bitrate=N/A speed=11.8x    frame=41102 fps=354 q=-0.0 size=N/A time=00:22:51.43 bitrate=N/A speed=11.8x    frame=41296 fps=354 q=-0.0 size=N/A time=00:22:57.90 bitrate=N/A speed=11.8x    frame=41485 fps=354 q=-0.0 size=N/A time=00:23:04.21 bitrate=N/A speed=11.8x    frame=41673 fps=354 q=-0.0 size=N/A time=00:23:10.48 bitrate=N/A speed=11.8x    frame=41850 fps=354 q=-0.0 size=N/A time=00:23:16.39 bitrate=N/A speed=11.8x    frame=42025 fps=354 q=-0.0 size=N/A time=00:23:22.23 bitrate=N/A speed=11.8x    frame=42214 fps=354 q=-0.0 size=N/A time=00:23:28.54 bitrate=N/A speed=11.8x    frame=42400 fps=354 q=-0.0 size=N/A time=00:23:34.74 bitrate=N/A speed=11.8x    frame=42578 fps=354 q=-0.0 size=N/A time=00:23:40.68 bitrate=N/A speed=11.8x    frame=42764 fps=354 q=-0.0 size=N/A time=00:23:46.89 bitrate=N/A speed=11.8x    frame=42932 fps=354 q=-0.0 size=N/A time=00:23:52.49 bitrate=N/A speed=11.8x    frame=43094 fps=354 q=-0.0 size=N/A time=00:23:57.90 bitrate=N/A speed=11.8x    frame=43270 fps=354 q=-0.0 size=N/A time=00:24:03.77 bitrate=N/A speed=11.8x    frame=43450 fps=354 q=-0.0 size=N/A time=00:24:09.78 bitrate=N/A speed=11.8x    frame=43626 fps=354 q=-0.0 size=N/A time=00:24:15.65 bitrate=N/A speed=11.8x    frame=43798 fps=354 q=-0.0 size=N/A time=00:24:21.39 bitrate=N/A speed=11.8x    frame=43979 fps=354 q=-0.0 size=N/A time=00:24:27.43 bitrate=N/A speed=11.8x    frame=44167 fps=354 q=-0.0 size=N/A time=00:24:33.70 bitrate=N/A speed=11.8x    frame=44349 fps=354 q=-0.0 size=N/A time=00:24:39.77 bitrate=N/A speed=11.8x    frame=44533 fps=354 q=-0.0 size=N/A time=00:24:45.91 bitrate=N/A speed=11.8x    frame=44713 fps=354 q=-0.0 size=N/A time=00:24:51.92 bitrate=N/A speed=11.8x    frame=44903 fps=354 q=-0.0 size=N/A time=00:24:58.26 bitrate=N/A speed=11.8x    frame=45087 fps=354 q=-0.0 size=N/A time=00:25:04.40 bitrate=N/A speed=11.8x    frame=45281 fps=354 q=-0.0 size=N/A time=00:25:10.87 bitrate=N/A speed=11.8x    frame=45470 fps=354 q=-0.0 size=N/A time=00:25:17.18 bitrate=N/A speed=11.8x    frame=45665 fps=354 q=-0.0 size=N/A time=00:25:23.68 bitrate=N/A speed=11.8x    frame=45848 fps=354 q=-0.0 size=N/A time=00:25:29.79 bitrate=N/A speed=11.8x    frame=46030 fps=354 q=-0.0 size=N/A time=00:25:35.86 bitrate=N/A speed=11.8x    frame=46191 fps=354 q=-0.0 size=N/A time=00:25:41.23 bitrate=N/A speed=11.8x    frame=46370 fps=354 q=-0.0 size=N/A time=00:25:47.21 bitrate=N/A speed=11.8x    frame=46562 fps=354 q=-0.0 size=N/A time=00:25:53.61 bitrate=N/A speed=11.8x    frame=46744 fps=354 q=-0.0 size=N/A time=00:25:59.69 bitrate=N/A speed=11.8x    frame=46927 fps=354 q=-0.0 size=N/A time=00:26:05.79 bitrate=N/A speed=11.8x    frame=47086 fps=354 q=-0.0 size=N/A time=00:26:11.10 bitrate=N/A speed=11.8x    frame=47273 fps=354 q=-0.0 size=N/A time=00:26:17.34 bitrate=N/A speed=11.8x    frame=47468 fps=354 q=-0.0 size=N/A time=00:26:23.84 bitrate=N/A speed=11.8x    frame=47661 fps=354 q=-0.0 size=N/A time=00:26:30.28 bitrate=N/A speed=11.8x    frame=47865 fps=354 q=-0.0 size=N/A time=00:26:37.09 bitrate=N/A speed=11.8x    frame=48046 fps=354 q=-0.0 size=N/A time=00:26:43.13 bitrate=N/A speed=11.8x    frame=48239 fps=354 q=-0.0 size=N/A time=00:26:49.57 bitrate=N/A speed=11.8x    frame=48426 fps=354 q=-0.0 size=N/A time=00:26:55.81 bitrate=N/A speed=11.8x    frame=48603 fps=354 q=-0.0 size=N/A time=00:27:01.72 bitrate=N/A speed=11.8x    frame=48788 fps=354 q=-0.0 size=N/A time=00:27:07.89 bitrate=N/A speed=11.8x    frame=48966 fps=354 q=-0.0 size=N/A time=00:27:13.83 bitrate=N/A speed=11.8x    frame=49138 fps=354 q=-0.0 size=N/A time=00:27:19.57 bitrate=N/A speed=11.8x    frame=49313 fps=354 q=-0.0 size=N/A time=00:27:25.41 bitrate=N/A speed=11.8x    frame=49499 fps=354 q=-0.0 size=N/A time=00:27:31.61 bitrate=N/A speed=11.8x    frame=49692 fps=354 q=-0.0 size=N/A time=00:27:38.05 bitrate=N/A speed=11.8x    frame=49876 fps=354 q=-0.0 size=N/A time=00:27:44.19 bitrate=N/A speed=11.8x    frame=50067 fps=354 q=-0.0 size=N/A time=00:27:50.56 bitrate=N/A speed=11.8x    [Parsed_ssim_16 @ 0000018cf71be300] SSIM Y:0.990668 (20.300060) U:0.997219 (25.557516) V:0.997111 (25.392503) All:0.992833 (21.446831)
[out#0/null @ 0000018cf92ef200] video:21556KiB audio:313856KiB subtitle:0KiB other streams:0KiB global headers:0KiB muxing overhead: unknown
frame=50166 fps=354 q=-0.0 Lsize=N/A time=00:27:53.87 bitrate=N/A speed=11.8x    
